<svg width="180" height="33" viewBox="0 0 180 33" fill="none" xmlns="http://www.w3.org/2000/svg">
<g clip-path="url(#clip0_955_3213)">
<path d="M127.691 24.6604C129.757 24.6604 131.513 24.2058 132.772 23.3404C134.067 22.4487 134.608 21.1724 134.608 19.6426C134.608 16.9415 132.976 15.604 128.445 14.8522C125.669 14.3364 124.871 13.8469 124.871 12.6668C124.871 11.4866 126.086 10.7348 127.7 10.7348C129.482 10.7348 130.582 11.7751 130.582 12.9377H134.244C134.244 11.7226 133.544 10.2366 132.311 9.33616C131.078 8.40954 129.491 7.94622 127.576 7.94622C125.474 7.94622 123.807 8.4445 122.619 9.43232C121.439 10.4114 120.872 11.5653 120.872 12.964C120.872 15.4728 122.672 16.854 126.902 17.5971C129.81 18.0954 130.75 18.6723 130.75 19.9748C130.75 21.1812 129.642 21.9068 127.78 21.9068C125.74 21.9068 124.57 21.0064 124.286 19.5465H120.659C120.801 22.7547 123.284 24.6691 127.709 24.6691L127.691 24.6604Z" fill="#FCFCFC"/>
<path d="M118.85 14.4413C118.85 14.4413 118.85 14.4413 118.85 14.4326C118.85 14.2577 118.797 13.4797 118.673 12.9727C118.167 10.4813 116.358 8.05112 112.962 7.95497C112.049 7.92874 110.595 7.99867 109.362 8.87285C108.591 9.41483 107.979 10.1142 107.686 10.4813V8.27841H104.441V24.5642H107.846V15.062C108.014 12.7017 109.575 11.1282 111.614 11.1282C113.876 11.1282 115.401 12.5793 115.401 14.9571V24.5555H118.877L118.85 14.4326V14.4413Z" fill="#FCFCFC"/>
<path d="M94.2076 8.16477C89.5877 8.16477 85.8367 11.8625 85.8367 16.417C85.8367 20.9714 89.5877 24.6691 94.2076 24.6691C97.187 24.6691 99.8118 23.1306 101.293 20.814L98.0649 19.4591C97.1782 20.6479 95.786 21.4085 94.2165 21.4085C92.0262 21.4085 90.164 19.9136 89.5611 17.8593H102.454C102.534 17.3873 102.578 16.9065 102.578 16.417C102.578 11.8625 98.8275 8.16477 94.2076 8.16477ZM89.5167 15.1057C90.0754 12.9815 91.9641 11.4254 94.2076 11.4254C96.451 11.4254 98.3398 12.9815 98.8985 15.1057H89.5167Z" fill="#FCFCFC"/>
<path d="M84.4534 11.3205V8.26967H70.4429V11.3555H80.0197L70.4429 21.4172V24.5642H84.4534V21.4784H74.9919L84.4534 11.3205Z" fill="#FCFCFC"/>
<path d="M178.697 21.5746C178.262 21.6008 177.89 21.6008 177.588 21.4959C176.772 21.2249 176.391 20.578 176.391 19.5028V11.7751H178.599L180 9.93059V8.7592H176.391V4.38834H172.826V8.7592H171.434V11.7838H172.826V20.1322C172.826 22.9732 174.564 24.6779 177.624 24.6779C178.856 24.6779 179.583 24.4856 180 24.3457V21.3997C179.628 21.4872 179.14 21.5658 178.697 21.5921V21.5746Z" fill="#FCFCFC"/>
<path d="M151.261 24.5642L151.234 14.4413C151.234 14.4413 151.234 14.4413 151.234 14.4326C151.234 14.2577 151.181 13.4797 151.057 12.9727C150.551 10.4813 148.662 8.05112 145.266 7.95497C144.353 7.92874 142.899 7.99867 141.666 8.87285C141.01 9.33616 140.478 9.90437 140.15 10.289V3.8551H136.603V24.5642H140.15V15.0183C140.336 12.6842 141.888 11.137 143.918 11.137C146.18 11.137 147.705 12.5881 147.705 14.9658V24.5642H151.261Z" fill="#FCFCFC"/>
<path d="M161.618 8.16477C156.998 8.16477 153.247 11.8625 153.247 16.417C153.247 20.9714 156.998 24.6691 161.618 24.6691C166.238 24.6691 169.989 20.9714 169.989 16.417C169.989 11.8625 166.238 8.16477 161.618 8.16477ZM161.618 21.4085C158.931 21.4085 156.758 19.1793 156.758 16.4257C156.758 13.6721 158.931 11.4429 161.618 11.4429C164.305 11.4429 166.477 13.6721 166.477 16.4257C166.477 19.1793 164.305 21.4085 161.618 21.4085Z" fill="#FCFCFC"/>
<path d="M56.7161 6.58252C54.4815 3.92503 52.0518 2.47391 48.0881 1.56477C47.3964 1.39867 46.625 1.25006 45.7914 1.10146C41.606 0.384634 36.055 -0.00874329 30.1493 -0.00874329C24.2524 -0.00874329 18.6925 0.384634 14.5071 1.10146C13.5406 1.26755 12.6627 1.44238 11.8912 1.6347C8.07823 2.57006 5.73723 4.02993 3.57358 6.6C1.26804 9.36238 0 12.8766 0 16.5131C0 20.1497 1.27691 23.6726 3.58244 26.4262C5.81703 29.0837 8.24671 30.5348 12.2105 31.444C12.9021 31.6101 13.6736 31.7587 14.5071 31.9073C18.6925 32.6241 24.2436 33.0175 30.1493 33.0175C36.0461 33.0175 41.606 32.6241 45.7914 31.9073C46.758 31.7412 47.6358 31.5664 48.4073 31.374C52.2203 30.4387 54.5613 28.9788 56.725 26.4087C59.0305 23.6638 60.2985 20.1497 60.2985 16.5131C60.2985 12.8766 59.0216 9.35364 56.7161 6.6V6.58252ZM30.1493 1.53854C35.7357 1.53854 41.0473 1.89695 45.0909 2.55258C47.0329 2.86728 48.5847 3.22569 49.7108 3.63655C50.1542 3.79391 50.4823 3.94251 50.7128 4.07364C50.9079 4.17854 51.0232 4.32715 51.0232 4.50199C51.0232 4.67682 50.8991 4.82543 50.7128 4.93033C49.9946 5.28874 48.4339 5.82199 45.0554 6.2853C42.5725 6.62622 39.5221 6.86225 36.1525 6.99338C37.1279 5.96185 38.2718 5.0702 39.5576 4.38834C39.5576 4.38834 39.5665 4.38834 39.5753 4.38834L38.8748 3.05086L38.8482 3.06834C38.0058 3.4792 34.6983 3.93377 30.1581 3.93377C24.9618 3.93377 22.0533 3.40053 21.4326 3.06834C20.6789 2.66622 19.8985 2.34278 19.0827 2.08053C22.3991 1.74834 26.2121 1.56477 30.1581 1.56477L30.1493 1.53854ZM30.1493 25.9105C31.4971 25.9105 32.8184 25.9279 34.1041 25.9629C34.6362 26.6448 35.2214 27.2742 35.8599 27.8599C34.2017 27.6938 32.2331 27.5976 30.1493 27.5976C27.8083 27.5976 25.9106 27.7113 24.4386 27.8686C25.086 27.2829 25.6712 26.6448 26.2033 25.9629C27.489 25.9279 28.8103 25.9192 30.1493 25.9192V25.9105ZM30.1493 24.3719C29.1738 24.3719 28.2073 24.3719 27.2674 24.3981C28.6507 22.0728 29.4133 19.3542 29.4133 16.5044C29.4133 13.6546 28.6418 10.9272 27.2585 8.60185C28.2073 8.61934 29.1738 8.62808 30.1493 8.62808C31.1247 8.62808 32.0912 8.62808 33.0312 8.60185C31.6479 10.9272 30.8853 13.6458 30.8853 16.4956C30.8853 19.3454 31.6567 22.0728 33.04 24.3981C32.0912 24.3807 31.1247 24.3719 30.1493 24.3719ZM30.1493 7.08953C28.8014 7.08953 27.4802 7.07205 26.1944 7.03708C25.6623 6.35523 25.0771 5.72583 24.4386 5.14013C26.0968 5.30622 28.0654 5.40238 30.1493 5.40238C32.4903 5.40238 34.3879 5.28874 35.8599 5.13139C35.2126 5.71708 34.6273 6.35523 34.0953 7.03708C32.8095 7.07205 31.4882 7.08079 30.1493 7.08079V7.08953ZM9.57683 4.07364C9.80738 3.94251 10.1355 3.79391 10.5966 3.62781C11.1907 3.40927 11.909 3.20821 12.7425 3.02463C13.3898 2.92848 14.046 2.87602 14.7111 2.87602C16.8393 2.87602 18.861 3.38305 20.7409 4.3796C22.0267 5.06146 23.1706 5.94437 24.146 6.97589C20.7853 6.84477 17.7349 6.60874 15.2608 6.26781C11.8824 5.8045 10.3217 5.28 9.60343 4.92159C9.40834 4.81669 9.2842 4.66808 9.2842 4.49324C9.2842 4.31841 9.39948 4.17854 9.57683 4.07364ZM7.54618 27.956C6.51756 27.2654 5.57761 26.4262 4.76181 25.4559C2.67796 22.9732 1.5252 19.8 1.5252 16.5044C1.5252 13.2087 2.6691 10.0442 4.75294 7.57033C5.56875 6.59126 6.51756 5.75205 7.54618 5.05271C8.03389 6.25907 10.2507 7.08953 14.5249 7.7102C17.4688 8.13854 21.2286 8.42702 25.4141 8.5494C26.9925 10.8222 27.8792 13.5846 27.8792 16.4956C27.8792 19.4066 26.9925 22.1603 25.4318 24.4244C21.2375 24.5468 17.4688 24.8352 14.5249 25.2636C10.233 25.893 8.01616 26.7322 7.53732 27.9385L7.54618 27.956ZM30.1493 31.4615C24.5628 31.4615 19.2512 31.103 15.2076 30.4474C13.2657 30.1327 11.7139 29.7743 10.5877 29.3634C10.1443 29.2061 9.81625 29.0575 9.58569 28.9264C9.39061 28.8215 9.27533 28.6728 9.27533 28.498C9.27533 28.3232 9.39948 28.1746 9.58569 28.0697C10.304 27.7113 11.8646 27.178 15.2431 26.7147C17.726 26.3738 20.7764 26.1377 24.146 26.0066C23.1706 27.0381 22.0267 27.9298 20.7409 28.6117C20.7409 28.6117 20.7321 28.6117 20.7232 28.6117L21.4237 29.9491L21.4503 29.9317C22.2927 29.5208 25.6003 29.0662 30.1404 29.0662C35.3367 29.0662 38.2452 29.5995 38.866 29.9317C39.6197 30.3338 40.4 30.6572 41.2158 30.9195C37.8994 31.2516 34.0864 31.4352 30.1404 31.4352L30.1493 31.4615ZM50.7306 28.9264C50.5 29.0575 50.1719 29.2061 49.7108 29.3722C49.1167 29.5907 48.3984 29.7918 47.5649 29.9754C46.9176 30.0715 46.2614 30.124 45.5963 30.124C43.4681 30.124 41.4464 29.6169 39.5665 28.6204C38.2807 27.9385 37.1368 27.0556 36.1614 26.0241C39.5221 26.1552 42.5725 26.3913 45.0466 26.7322C48.425 27.1955 49.9857 27.72 50.704 28.0784C50.8991 28.1833 51.0232 28.3319 51.0232 28.5068C51.0232 28.6816 50.9079 28.8215 50.7306 28.9264ZM55.5545 25.4297C54.7387 26.4087 53.7898 27.2479 52.7612 27.9473C52.2735 26.7409 50.0566 25.9105 45.7825 25.2898C42.8386 24.8615 39.0788 24.573 34.8933 24.4506C33.3149 22.1777 32.4282 19.4154 32.4282 16.5044C32.4282 13.5934 33.3149 10.8397 34.8756 8.57563C39.0699 8.45324 42.8386 8.16477 45.7825 7.73642C50.0744 7.10702 52.2912 6.26781 52.7701 5.06146C53.7987 5.75205 54.7387 6.59126 55.5545 7.56159C57.6383 10.0442 58.7911 13.2175 58.7911 16.5131C58.7911 19.8087 57.6472 22.9732 55.5633 25.4472L55.5545 25.4297Z" fill="#FCFCFC"/>
</g>
<defs>
<clipPath id="clip0_955_3213">
<rect width="180" height="33" fill="white"/>
</clipPath>
</defs>
</svg>
