<svg width="280" height="52" viewBox="0 0 280 52" fill="none" xmlns="http://www.w3.org/2000/svg">
<path d="M198.63 38.8589C201.844 38.8589 204.576 38.1426 206.534 36.7789C208.548 35.3739 209.39 33.3628 209.39 30.9522C209.39 26.6957 206.852 24.5882 199.803 23.4035C195.485 22.5908 194.244 21.8194 194.244 19.9598C194.244 18.1002 196.134 16.9156 198.644 16.9156C201.417 16.9156 203.127 18.5548 203.127 20.3869H208.824C208.824 18.4722 207.734 16.1304 205.817 14.7116C203.9 13.2515 201.431 12.5214 198.451 12.5214C195.182 12.5214 192.589 13.3066 190.74 14.8632C188.906 16.4059 188.023 18.2242 188.023 20.4282C188.023 24.3816 190.823 26.558 197.403 27.7288C201.927 28.514 203.389 29.4232 203.389 31.4756C203.389 33.3765 201.665 34.5198 198.768 34.5198C195.596 34.5198 193.775 33.101 193.334 30.8006H187.692C187.913 35.856 191.775 38.8727 198.658 38.8727L198.63 38.8589Z" fill="#15181B"/>
<path d="M184.878 22.7561C184.878 22.7561 184.878 22.7561 184.878 22.7424C184.878 22.4669 184.795 21.2409 184.602 20.442C183.816 16.5161 181.002 12.6867 175.719 12.5352C174.298 12.4939 172.036 12.6041 170.119 13.9816C168.919 14.8356 167.967 15.9376 167.512 16.5161V13.0449H162.463V38.7074H167.76V23.7341C168.022 20.0149 170.45 17.5355 173.622 17.5355C177.14 17.5355 179.512 19.8221 179.512 23.5688V38.6936H184.919L184.878 22.7424V22.7561Z" fill="#15181B"/>
<path d="M146.545 12.8658C139.359 12.8658 133.524 18.6926 133.524 25.8692C133.524 33.0459 139.359 38.8727 146.545 38.8727C151.18 38.8727 155.263 36.4483 157.566 32.798L152.545 30.6629C151.166 32.5363 149 33.7347 146.559 33.7347C143.152 33.7347 140.255 31.3792 139.317 28.1421H159.373C159.498 27.3983 159.566 26.6406 159.566 25.8692C159.566 18.6926 153.732 12.8658 146.545 12.8658ZM139.248 23.803C140.117 20.4557 143.055 18.0038 146.545 18.0038C150.035 18.0038 152.973 20.4557 153.842 23.803H139.248Z" fill="#15181B"/>
<path d="M131.372 17.8385V13.0311H109.578V17.8936H124.475L109.578 33.7484V38.7074H131.372V33.8449H116.654L131.372 17.8385Z" fill="#15181B"/>
<path d="M277.972 33.9964C277.296 34.0377 276.717 34.0377 276.248 33.8724C274.979 33.4454 274.386 32.4261 274.386 30.7318V18.5548H277.821L280 15.6483V13.8025H274.386V6.91507H268.841V13.8025H266.675V18.5686H268.841V31.7235C268.841 36.2004 271.544 38.8865 276.303 38.8865C278.221 38.8865 279.352 38.5834 280 38.363V33.7209C279.421 33.8586 278.662 33.9826 277.972 34.0239V33.9964Z" fill="#15181B"/>
<path d="M235.294 38.7074L235.253 22.7561C235.253 22.7561 235.253 22.7561 235.253 22.7424C235.253 22.4669 235.17 21.2409 234.977 20.442C234.191 16.5161 231.253 12.6867 225.97 12.5352C224.549 12.4939 222.287 12.6041 220.369 13.9816C219.349 14.7116 218.521 15.607 218.011 16.2131V6.07481H212.493V38.7074H218.011V23.6653C218.3 19.9874 220.714 17.5492 223.873 17.5492C227.391 17.5492 229.763 19.8359 229.763 23.5826V38.7074H235.294Z" fill="#15181B"/>
<path d="M251.405 12.8658C244.219 12.8658 238.384 18.6926 238.384 25.8692C238.384 33.0459 244.219 38.8727 251.405 38.8727C258.592 38.8727 264.427 33.0459 264.427 25.8692C264.427 18.6926 258.592 12.8658 251.405 12.8658ZM251.405 33.7347C247.226 33.7347 243.846 30.2221 243.846 25.883C243.846 21.5439 247.226 18.0314 251.405 18.0314C255.585 18.0314 258.964 21.5439 258.964 25.883C258.964 30.2221 255.585 33.7347 251.405 33.7347Z" fill="#15181B"/>
<path d="M88.225 10.3726C84.749 6.185 80.9695 3.89838 74.8037 2.4658C73.7278 2.20408 72.5277 1.9699 71.2311 1.73573C64.7204 0.606196 56.0855 -0.0136719 46.8989 -0.0136719C37.726 -0.0136719 29.0773 0.606196 22.5666 1.73573C21.0631 1.99745 19.6975 2.27295 18.4975 2.576C12.5661 4.0499 8.92458 6.3503 5.55889 10.4001C1.97251 14.753 0 20.2904 0 26.0208C0 31.7511 1.9863 37.3024 5.57269 41.6414C9.04872 45.829 12.8282 48.1156 18.994 49.5482C20.07 49.8099 21.27 50.0441 22.5666 50.2782C29.0773 51.4078 37.7122 52.0276 46.8989 52.0276C56.0717 52.0276 64.7204 51.4078 71.2311 50.2782C72.7346 50.0165 74.1002 49.741 75.3003 49.438C81.2316 47.9641 84.8731 45.6637 88.2388 41.6139C91.8252 37.2886 93.7977 31.7511 93.7977 26.0208C93.7977 20.2904 91.8114 14.7392 88.225 10.4001V10.3726ZM46.8989 2.42447C55.5889 2.42447 63.8514 2.98924 70.1414 4.02235C73.1622 4.51825 75.5761 5.08302 77.3279 5.73043C78.0176 5.97838 78.528 6.21255 78.8866 6.41918C79.1901 6.58447 79.3694 6.81865 79.3694 7.09414C79.3694 7.36964 79.1763 7.60381 78.8866 7.76911C77.7693 8.33388 75.3416 9.17414 70.0862 9.90421C66.224 10.4414 61.4789 10.8133 56.2373 11.02C57.7546 9.39454 59.534 7.98951 61.5341 6.91507C61.5341 6.91507 61.5479 6.91507 61.5617 6.91507L60.4719 4.80752L60.4306 4.83507C59.1202 5.48249 53.9751 6.19878 46.9127 6.19878C38.8295 6.19878 34.3051 5.35851 33.3396 4.83507C32.1671 4.20143 30.9532 3.69176 29.6842 3.27851C34.8431 2.75507 40.7744 2.4658 46.9127 2.4658L46.8989 2.42447ZM46.8989 40.8287C48.9955 40.8287 51.0508 40.8563 53.0509 40.9114C53.8785 41.9858 54.7889 42.9776 55.7821 43.9005C53.2026 43.6388 50.1404 43.4873 46.8989 43.4873C43.2573 43.4873 40.3054 43.6663 38.0157 43.9143C39.0226 42.9914 39.933 41.9858 40.7606 40.9114C42.7607 40.8563 44.816 40.8425 46.8989 40.8425V40.8287ZM46.8989 38.4043C45.3815 38.4043 43.878 38.4043 42.4159 38.4457C44.5677 34.7816 45.754 30.4976 45.754 26.007C45.754 21.5164 44.5539 17.2186 42.4021 13.5545C43.878 13.5821 45.3815 13.5959 46.8989 13.5959C48.4162 13.5959 49.9197 13.5959 51.3818 13.5545C49.23 17.2186 48.0437 21.5026 48.0437 25.9932C48.0437 30.4838 49.2438 34.7816 51.3956 38.4457C49.9197 38.4181 48.4162 38.4043 46.8989 38.4043ZM46.8989 11.1715C44.8022 11.1715 42.7469 11.1439 40.7468 11.0888C39.9192 10.0144 39.0088 9.02262 38.0157 8.09971C40.5951 8.36143 43.6573 8.51295 46.8989 8.51295C50.5404 8.51295 53.4923 8.33388 55.7821 8.08593C54.7751 9.00885 53.8647 10.0144 53.0371 11.0888C51.037 11.1439 48.9817 11.1577 46.8989 11.1577V11.1715ZM14.8973 6.41918C15.2559 6.21255 15.7663 5.97838 16.4836 5.71666C17.4078 5.37229 18.525 5.05547 19.8217 4.7662C20.8286 4.61467 21.8494 4.53202 22.8839 4.53202C26.1944 4.53202 29.3394 5.33096 32.2637 6.9013C34.2638 7.97573 36.0432 9.36699 37.5605 10.9924C32.3326 10.7858 27.5876 10.4139 23.7391 9.87666C18.4837 9.14659 16.056 8.3201 14.9387 7.75534C14.6352 7.59004 14.4421 7.35586 14.4421 7.08037C14.4421 6.80487 14.6214 6.58447 14.8973 6.41918ZM11.7385 44.052C10.1384 42.9638 8.67629 41.6414 7.40726 40.1124C4.16572 36.2004 2.37253 31.2001 2.37253 26.007C2.37253 20.8139 4.15193 15.8274 7.39347 11.9291C8.6625 10.3863 10.1384 9.06394 11.7385 7.96196C12.4972 9.86289 15.9456 11.1715 22.5942 12.1495C27.1737 12.8245 33.0223 13.279 39.533 13.4719C41.9883 17.0533 43.3677 21.4062 43.3677 25.9932C43.3677 30.5802 41.9883 34.9193 39.5606 38.487C33.0361 38.6798 27.1737 39.1344 22.5942 39.8094C15.918 40.8012 12.4696 42.1235 11.7247 44.0245L11.7385 44.052ZM46.8989 49.5757C38.2088 49.5757 29.9463 49.011 23.6563 47.9779C20.6355 47.482 18.2216 46.9172 16.4698 46.2698C15.7801 46.0218 15.2697 45.7877 14.9111 45.581C14.6076 45.4157 14.4283 45.1816 14.4283 44.9061C14.4283 44.6306 14.6214 44.3964 14.9111 44.2311C16.0284 43.6663 18.4561 42.8261 23.7115 42.096C27.5738 41.5588 32.3188 41.1869 37.5605 40.9802C36.0432 42.6057 34.2638 44.0107 32.2637 45.0851C32.2637 45.0851 32.2499 45.0851 32.2361 45.0851L33.3258 47.1927L33.3672 47.1651C34.6776 46.5177 39.8227 45.8014 46.8851 45.8014C54.9682 45.8014 59.4926 46.6417 60.4581 47.1651C61.6306 47.7988 62.8445 48.3084 64.1135 48.7217C58.9546 49.2451 53.0233 49.5344 46.8851 49.5344L46.8989 49.5757ZM78.9142 45.581C78.5556 45.7877 78.0452 46.0218 77.3279 46.2835C76.4038 46.6279 75.2865 46.9447 73.9898 47.234C72.9829 47.3855 71.9622 47.4682 70.9276 47.4682C67.6171 47.4682 64.4721 46.6692 61.5479 45.0989C59.5478 44.0245 57.7684 42.6332 56.251 41.0078C61.4789 41.2144 66.2239 41.5863 70.0724 42.1235C75.3278 42.8536 77.7555 43.6801 78.8728 44.2449C79.1763 44.4102 79.3694 44.6443 79.3694 44.9198C79.3694 45.1953 79.1901 45.4157 78.9142 45.581ZM86.418 40.0711C85.149 41.6139 83.6731 42.9363 82.073 44.0382C81.3143 42.1373 77.8659 40.8287 71.2173 39.8507C66.6378 39.1757 60.7892 38.7212 54.2785 38.5283C51.8232 34.9469 50.4439 30.594 50.4439 26.007C50.4439 21.42 51.8232 17.0809 54.2509 13.5132C60.7754 13.3204 66.6378 12.8658 71.2173 12.1908C77.8935 11.199 81.3419 9.87666 82.0868 7.97573C83.6869 9.06394 85.149 10.3863 86.418 11.9153C89.6596 15.8274 91.4528 20.8277 91.4528 26.0208C91.4528 31.2139 89.6734 36.2004 86.4318 40.0986L86.418 40.0711Z" fill="#15181B"/>
</svg>
